# xmcd
#
# Track frame offsets: 
#        150
#        31205
#        47335
#        60675
#        70721
#        80460
#        90322
#        96674
#        110292
#        120747
#        131343
#        144299
#        154216
#        164601
#        177053
#        181366
#        193483
#        206095
#        218354
#        230161
#        245566
#        258575
#        268926
#        288947
#        307007
#
# Disc length: 4271 seconds
#
# Revision: 8
# Processed by: cddbd v1.5.2PL0 Copyright (c) Steve Scherf et al.
# Submitted via: ExactAudioCopy v1.1
#
DISCID=6e10ad19
DTITLE=Tomaso Albinoni - Tomaso Albinoni - Adagio and Concerti
DYEAR=1985
DGENRE=Classical
TTITLE0=Eduard Kaufmann, Orgel  - Festival Strings Lucerne Rudolf Baumg
TTITLE0=artner - Adagio in G minor for Organ and Strings
TTITLE1=Heinz Holliger, Hans Elhorst, Oboe - Camerata Bern - Concerto i
TTITLE1=n B flat op 7 no 3 for 2 Oboes Strings and Basso Continuo - 1 
TTITLE1=Allegro
TTITLE2=Heinz Holliger, Hans Elhorst, Oboe - Camerata Bern - Concerto i
TTITLE2=n B flat op 7 no 3 for 2 Oboes Strings and Basso Continuo - 2 
TTITLE2=Adagio
TTITLE3=Heinz Holliger, Hans Elhorst, Oboe - Camerata Bern - Concerto i
TTITLE3=n B flat op 7 no 3 for 2 Oboes Strings and Basso Continuo - 3 
TTITLE3=Allegro
TTITLE4=Heinz Holliger, Hans Elhorst, Oboe - Camerata Bern - Concerto i
TTITLE4=n C major op 7 no 5 for Oboe Strings and Basso Continuo - 1 Al
TTITLE4=legro
TTITLE5=Heinz Holliger, Hans Elhorst, Oboe - Camerata Bern - Concerto i
TTITLE5=n C major op 7 no 5 for Oboe Strings and Basso Continuo - 2 Ad
TTITLE5=agio
TTITLE6=Heinz Holliger, Hans Elhorst, Oboe - Camerata Bern - Concerto i
TTITLE6=n C major op 7 no 5 for Oboe Strings and Basso Continuo - 3 Al
TTITLE6=legro
TTITLE7=Heinz Holliger, Hans Elhorst, Oboe - Camerata Bern - Concerto i
TTITLE7=n D major op 7 no 6 for Oboe Strings and Basso Continuo - 1 Al
TTITLE7=legro
TTITLE8=Heinz Holliger, Hans Elhorst, Oboe - Camerata Bern - Concerto i
TTITLE8=n D major op 7 no 6 for Oboe Strings and Basso Continuo - 2 Ad
TTITLE8=agio
TTITLE9=Heinz Holliger, Hans Elhorst, Oboe - Camerata Bern - Concerto i
TTITLE9=n D major op 7 no 6 for Oboe Strings and Basso Continuo - 3 Al
TTITLE9=legro
TTITLE10=Hans-Martin Linde, Querflöte - Collegium Musicum Zürich - Conc
TTITLE10=erto in G major for Flute Strings and Basso Continuo - 1 Alle
TTITLE10=gro
TTITLE11=Hans-Martin Linde, Querflöte - Collegium Musicum Zürich - Conc
TTITLE11=erto in G major for Flute Strings and Basso Continuo - 2 Adag
TTITLE11=io
TTITLE12=Hans-Martin Linde, Querflöte - Collegium Musicum Zürich - Conc
TTITLE12=erto in G major for Flute Strings and Basso Continuo - 3 Alle
TTITLE12=gro
TTITLE13=Heinz Holliger, Hans Elhorst, Oboe - Camerata Bern - Concerto 
TTITLE13=in F major op 7 no 9 for Oboe Strings and Basso Continuo - 1 
TTITLE13=Allegro
TTITLE14=Heinz Holliger, Hans Elhorst, Oboe - Camerata Bern - Concerto 
TTITLE14=in F major op 7 no 9 for Oboe Strings and Basso Continuo - 2 
TTITLE14=Adagio
TTITLE15=Heinz Holliger, Hans Elhorst, Oboe - Camerata Bern - Concerto 
TTITLE15=in F major op 7 no 9 for Oboe Strings and Basso Continuo - 3 
TTITLE15=Allegro
TTITLE16=Heinz Holliger, Hans Elhorst, Oboe - Camerata Bern - Concerto 
TTITLE16=in C major op 7 no 11 for 2 Oboes Strings and Basso Continuo 
TTITLE16=1 Allegro
TTITLE17=Heinz Holliger, Hans Elhorst, Oboe - Camerata Bern - Concerto 
TTITLE17=in C major op 7 no 11 for 2 Oboes Strings and Basso Continuo 
TTITLE17=2 Adagio
TTITLE18=Heinz Holliger, Hans Elhorst, Oboe - Camerata Bern - Concerto 
TTITLE18=in C major op 7 no 11 for 2 Oboes Strings and Basso Continuo 
TTITLE18=3 Allegro
TTITLE19=Heinz Holliger, Hans Elhorst, Oboe - Camerata Bern - Concerto 
TTITLE19=in C major op 7 no 12 for Oboe Strings and Basso Continuo - 1
TTITLE19=Allegro
TTITLE20=Heinz Holliger, Hans Elhorst, Oboe - Camerata Bern - Concerto 
TTITLE20=in C major op 7 no 12 for Oboe Strings and Basso Continuo - 2
TTITLE20=Adagio
TTITLE21=Heinz Holliger, Hans Elhorst, Oboe - Camerata Bern - Concerto 
TTITLE21=in C major op 7 no 12 for Oboe Strings and Basso Continuo - 3
TTITLE21=Allegro
TTITLE22=David Reichenberg, Oboe - The English Concert - Concerto a 5 i
TTITLE22=n D minor op 9 no 2 for Oboe and Strings - 1 Allegro e non pr
TTITLE22=esto
TTITLE23=David Reichenberg, Oboe - The English Concert - Concerto a 5 i
TTITLE23=n D minor op 9 no 2 for Oboe and Strings - 2 Adagio
TTITLE24=David Reichenberg, Oboe - The English Concert - Concerto a 5 i
TTITLE24=n D minor op 9 no 2 for Oboe and Strings - 3 Allegro
EXTD=YEAR: 1985
EXTT0=
EXTT1=
EXTT2=
EXTT3=
EXTT4=
EXTT5=
EXTT6=
EXTT7=
EXTT8=
EXTT9=
EXTT10=
EXTT11=
EXTT12=
EXTT13=
EXTT14=
EXTT15=
EXTT16=
EXTT17=
EXTT18=
EXTT19=
EXTT20=
EXTT21=
EXTT22=
EXTT23=
EXTT24=
PLAYORDER=
